<svg xmlns="http://www.w3.org/2000/svg" fill="none" viewBox="0 0 520 333">
  <g opacity=".49">
    <mask id="a" width="451" height="298" x="44" y="35" maskUnits="userSpaceOnUse" style="mask-type:luminance">
      <path fill="#fff"
        d="M48.278 251.029C26.852 177.457 106.95 88.211 229.021 51.205c122.072-37.03 234.638-6.094 261.28 65.747 25.326 68.258-57.989 161.941-180.037 198.971-122.071 37.029-240.316 9.434-261.986-64.894Z" />
    </mask>
    <g fill="#136491" mask="url(#a)">
      <path
        d="M232.751 44.867c-26.179-1.828-82.096 102.557-83.803 128.52l-16.063-28.839c-4.924-9.8-10.091-14.164-22.864-5.9l-74.637 63.041c-2.609 1.56-3.56 4.876-2.145 7.557l46.045 87.882c1.462 2.803 4.509 7.825 11.188 3.413l28.909-15.48c2.803-1.463 3.876-4.925 2.413-7.728l-31.541-62.529c-1.463-2.803 3.924-8.02 6.947-10.385l.219-.146 3.754-2.389c2.681-1.341 3.266.926 4.802 3.51l23.839 66.722c1.34 2.219 7.507 2.706 9.701 1.341l45.655-26.328a5.7 5.7 0 0 0 1.804-7.947l-8.507-15.26c16.77 9.556 42.901 26.669 85.119 12.408 43.217-14.627 70.103-42.369 70.372-81.714.243-35.665-1.439-102.777-101.207-109.724v-.025Zm1.048 161.308c-17.721 6.313-57.648-23.232-63.961-40.931-4.997-13.968 15.576-70.622 36.076-80.007 21.767-9.97 64.765 27.717 71.103 45.44 6.337 17.722-25.497 69.208-43.218 75.522v-.024ZM427.267 81.19c-3.047-8.776-13.626-24.646-31.03-26.645-4.704-.536-15.429 15.7-22.717 16.309a27.58 27.58 0 0 1-1.999.146c-8.605.78-18.915 2.316-30.932 4.559a5.042 5.042 0 0 0-4.071 5.631L334.3 184.454c.292 2.072 3.437 6.679 8.287 7.508.732.122 5.704-.024 6.435-.146l39.415-6.801c2.535-.415 4.339-2.658 4.217-5.242l-6.995-31.788c-.147-2.682 1.852-4.998 4.533-5.266 4.51-.463 4.802-.512 10.262-2.072.244-.073.512-.17.78-.244 6.801-2.535 12.432-5.606 16.893-9.214.073-.074.17-.122.243-.171 15.698-10.044 12.944-38.2 8.897-49.804v-.024Zm-39.195 34.373c-5.363 1.535-10.823-2.17-11.31-7.728-.415-4.583 2.778-8.825 7.337-9.507 2.364-.366 4.68-.44 6.995-.196a9.094 9.094 0 0 1 2.511.659c3.632 1.609 5.265 4.583 4.899 8.946-.268 3.316-3.729 5.948-10.408 7.85l-.024-.024Z" />
      <path
        d="m521.599 163.1-39.951-93.806a4.185 4.185 0 0 0-4.047-2.535l-22.449 1.024a2.724 2.724 0 0 0-2.462 1.853l-22.499 67.063-27.52 20.818c-.682 2.048-4.338 15.09 5.29 18.235l37.879 14.407c2.17.975 4.705-.024 5.607-2.218l4.241-12.36a4.173 4.173 0 0 1 3.681-2.608l12.577-1.609c1-.049 1.78.536 2.389 1.365 1.316 1.828 3.023 3.34 5.046 4.339l10.627 5.339c.854 2.559 8.191 3.266 10.506 1.853l19.476-15.968a4.226 4.226 0 0 0 1.658-5.217l-.049.025Zm-46.411-13.481-8.848.682c-2.974.22-4.217-1.365-3.315-4.193l4.607-14.553c.536-1.682.804-3.145 2.535-3.218a4.19 4.19 0 0 1 4.144 2.804l4.509 12.92c.902 2.584-.902 5.338-3.632 5.558Z" />
    </g>
  </g>
  <path fill="#2D2E87"
    d="M122.843 188.913s2.413-3.827-1.902-2.267c-6.215 2.243-19.695 10.458-18.135 13.798 2.486 5.338 28.812 65.673 34.345 65.21 7.02-.61 9.141-4.071 8.824-4.656l-31.274-61.968c-2.827-4.266 8.142-10.093 8.142-10.093v-.024Z" />
  <path fill="#2D2E87"
    d="M120.112 138.183c-6.289-8.313-15.551-.366-18.208 1.219l-92.87 67.38c-2.608 1.56-3.56 4.875-2.145 7.557l57.136 87.759c4.606 7.484 16.258-.365 17.77-.926l25.52-13.676c2.803-1.463 3.876-4.924 2.413-7.728L78.187 217.24c-1.463-2.804 3.85-6.387 6.874-8.752.073-.049.682-.512.755-.561l.78-.219c2.681-1.341 3.266.926 4.802 3.51l35.515 58.239c.78 1.292 1.974 2.706 3.486 3.608 1.657.975 3.729.902 5.362-.122l37.343-23.379a5.7 5.7 0 0 0 1.804-7.947l-54.82-103.434h.024Z" />
  <path fill="#2D2E87"
    d="M120.331 138.549s-14.625 14.432-11.993 20.088c2.487 5.338 50.628 80.568 56.064 89.051.341.536.95.853 1.584.78 1.585-.146 4.778-.975 8.702-4.924a1.516 1.516 0 0 0 .268-1.78l-50.749-95.682c-3.145-6.289-3.9-7.533-3.9-7.533h.024Z" />
  <path fill="#FFD159"
    d="M107.803 159.708c-1.658-2.584-5.095-3.388-7.727-1.828l-77.977 46.342c-2.608 1.56-3.559 4.875-2.145 7.557l46.045 87.881c1.462 2.804 4.924 3.877 7.702 2.414L97.2 289.788c2.803-1.463 3.876-4.925 2.413-7.728l-31.03-58.75a5.705 5.705 0 0 1 2.487-7.753l14.113-9.799a5.738 5.738 0 0 1 7.483 2.145l35.832 59.408c1.633 2.731 5.192 3.584 7.898 1.902l24.96-15.431a5.7 5.7 0 0 0 1.804-7.947l-55.405-86.151.049.024Z" />
  <path fill="url(#b)"
    d="m160.283 243.956-53.894-83.152-76.149 45.27c-2.608 1.56-3.558 4.875-2.145 7.557l44.754 85.443s18.647-9.361 22.425-11.506c3.802-2.145 2.9-5.46 2.9-5.46s-26.52-51.34-30.493-57.776c-3.973-6.435-.829-9.312-.829-9.312s9.117-6.752 14.26-10.214c0 0 7.459-4.486 10.847-5.193 2.779-.585 8.848 10.117 8.848 10.117l34.394 57.044 25.667-15.626c2.584-2.219-.634-7.216-.634-7.216l.049.024Z"
    opacity=".69" />
  <path stroke="#2D2E87" stroke-miterlimit="10" stroke-width="1.18"
    d="M107.144 158.538c-1.657-2.584-5.07-3.389-7.727-1.829L21.44 203.051c-2.608 1.561-3.558 4.876-2.145 7.558l46.046 87.881a5.702 5.702 0 0 0 7.702 2.413l23.498-12.286c2.803-1.463 3.876-4.924 2.413-7.728l-31.03-58.75a5.703 5.703 0 0 1 2.487-7.752l14.113-9.8a5.739 5.739 0 0 1 7.483 2.145l35.832 59.409c1.633 2.73 5.192 3.583 7.898 1.901l24.96-15.431a5.7 5.7 0 0 0 1.804-7.947l-55.406-86.151.049.025Z" />
  <path fill="#fff"
    d="M102.342 157.953a3.67 3.67 0 0 1 3.096 1.682l55.405 86.15c.536.829.707 1.829.488 2.804a3.595 3.595 0 0 1-1.658 2.316l-24.96 15.431a3.62 3.62 0 0 1-1.926.56 3.661 3.661 0 0 1-3.169-1.779l-35.831-59.409a7.796 7.796 0 0 0-6.63-3.754 7.888 7.888 0 0 0-3.486.829l-.122.073-.122.073-14.016 9.727c-1.804.951-3.12 2.535-3.754 4.486a7.726 7.726 0 0 0 .512 5.972l31.006 58.75a3.63 3.63 0 0 1 .243 2.804 3.628 3.628 0 0 1-1.803 2.169l-23.498 12.287a3.752 3.752 0 0 1-1.706.414 3.655 3.655 0 0 1-3.267-1.975L21.1 209.682a3.695 3.695 0 0 1 1.39-4.876l77.976-46.342a3.625 3.625 0 0 1 1.877-.511Zm0-2.024c-.999 0-1.998.268-2.925.805L21.44 203.076c-2.608 1.56-3.558 4.875-2.145 7.557l46.046 87.881a5.712 5.712 0 0 0 5.07 3.072c.901 0 1.803-.22 2.632-.658l23.498-12.287c2.803-1.462 3.876-4.924 2.413-7.727l-31.03-58.751a5.703 5.703 0 0 1 2.487-7.752l14.113-9.8a5.749 5.749 0 0 1 7.483 2.146l35.832 59.408a5.714 5.714 0 0 0 4.899 2.755 5.601 5.601 0 0 0 2.999-.854l24.96-15.431a5.7 5.7 0 0 0 1.804-7.947l-55.406-86.15a5.689 5.689 0 0 0-4.801-2.633l.048.024Z" />
  <path fill="#2D2E87" stroke="#2D2E87" stroke-miterlimit="10" stroke-width="1.18"
    d="M197.187 51.033c-48.531 17.82-78.245 77.74-60.695 125.545 17.551 47.805 78.245 72.816 126.752 54.996 48.532-17.82 77.587-74.547 60.037-122.327-17.55-47.805-77.563-76.01-126.094-58.19v-.024Zm61.036 139.001c-26.594 9.776-62.425-3.9-72.029-30.082-9.629-26.181 9.165-56.995 37.197-64.771 27.3-7.557 39.488 5.241 49.116 31.423 9.628 26.181 12.309 53.655-14.26 63.43h-.024Z" />
  <path fill="#2D2E87"
    d="m261.099 51.86-5.972 6.534c-1.146 1.267-.683 3.29.926 3.9 11.164 4.193 45.485 21.843 45.241 79.642-.293 69.038-49.068 87.955-49.068 87.955s4.364 13.139 36.612-11.068c22.352-16.772 41.56-38.638 42.535-95.39.293-17.942-11.091-30.764-31.907-51.217-12.285-12.091-28.983-19.04-34.808-21.233a3.29 3.29 0 0 0-3.583.878h.024Z" />
  <path fill="#FFD159"
    d="M193.019 63.173c-45.85 16.845-69.372 67.697-52.529 113.551 16.843 45.855 67.69 69.379 113.54 52.534 45.851-16.845 69.373-67.696 52.529-113.551-16.843-45.854-67.69-69.379-113.54-52.534Zm47.215 128.544c-25.131 9.239-52.992-3.657-62.206-28.79-9.214-25.134 3.656-52.997 28.787-62.212 25.131-9.24 52.992 3.657 62.206 28.79 9.239 25.133-3.656 52.997-28.787 62.212Z" />
  <path fill="url(#c)"
    d="M163.621 207.659c.366.415.731.829 1.121 1.268a87.347 87.347 0 0 0 5.582 5.656c21.475 19.112 53.309 19.331 67.569 17.82 15.551-1.658 72.906-23.403 72.175-86.005-.731-61.529-54.089-81.275-55.893-81.909-17.233-4.802-36.075-4.436-54.137 2.219-45.85 16.845-69.373 67.696-52.529 113.551a88.766 88.766 0 0 0 16.136 27.425l-.024-.025Zm26.935-96.438c20.378-19.868 37.733-13.676 48.482-10.921 1.317.341 4.583 1.097 5.899 2.462 14.747 3.925 25.424 14.871 31.079 30.277 9.238 25.134-3.657 52.997-28.788 62.212-14.381 5.29-29.664 3.316-41.828-4.071 0 0-19.281-1.804-29.518-33.105 0 0-5.704-27.01 14.674-46.854Z"
    opacity=".69" />
  <path stroke="#2D2E87" stroke-miterlimit="10" stroke-width="1.18"
    d="M193.019 63.173c-45.85 16.845-69.372 67.697-52.529 113.551 16.843 45.855 67.69 69.379 113.54 52.534 45.851-16.845 69.373-67.696 52.529-113.551-16.843-45.854-67.69-69.379-113.54-52.534Zm47.215 128.544c-25.131 9.239-52.992-3.657-62.206-28.79-9.214-25.134 3.656-52.997 28.787-62.212 25.131-9.24 52.992 3.657 62.206 28.79 9.239 25.133-3.656 52.997-28.787 62.212Zm0 0c-25.131 9.239-52.992-3.657-62.206-28.79-9.214-25.134 3.656-52.997 28.787-62.212 25.131-9.24 52.992 3.657 62.206 28.79 9.239 25.133-3.656 52.997-28.787 62.212Z" />
  <path fill="#fff"
    d="M223.513 59.76c36.075 0 68.689 22.769 81.145 56.654 16.429 44.733-6.606 94.512-51.334 110.943-9.629 3.534-19.647 5.314-29.787 5.314-36.076 0-68.69-22.769-81.146-56.654-16.429-44.733 6.606-94.512 51.335-110.942 9.628-3.535 19.646-5.315 29.787-5.315Zm0-2.023c-10.141 0-20.427 1.755-30.494 5.46-45.85 16.845-69.372 67.697-52.529 113.552 13.138 35.81 47.02 57.994 83.047 57.994 10.14 0 20.426-1.755 30.493-5.46 45.851-16.845 69.373-67.697 52.529-113.552-13.138-35.81-47.02-57.994-83.046-57.994Z" />
  <path fill="#fff"
    d="M223.513 97.74v2.024c19.378 0 36.904 12.238 43.583 30.448 8.824 24.036-3.534 50.779-27.568 59.603a46.211 46.211 0 0 1-16.015 2.852c-19.378 0-36.904-12.237-43.608-30.447-8.823-24.037 3.535-50.779 27.569-59.604a46.234 46.234 0 0 1 16.015-2.852v-2.023m0 0c-5.558 0-11.189.95-16.697 2.974-25.131 9.239-38.026 37.078-28.788 62.212 7.215 19.624 25.765 31.764 45.509 31.764a48.3 48.3 0 0 0 16.697-2.974c25.131-9.239 38.026-37.079 28.787-62.212-7.215-19.624-25.764-31.789-45.508-31.764Z" />
  <path fill="#1D1D1B" d="M192.263 118.924s-3.729 6.509-8.117 20.014c-3.022 9.337-3.827 26.426 5.436 38.249 9.263 11.823 35.442 13.749 35.442 13.749l.828-35.128-11.407-25.597-22.157-11.262-.025-.025Z"
    opacity=".38" style="mix-blend-mode:multiply" />
  <path fill="#2D2E87"
    d="M411.228 120.801c15.21-10.945 14.089-41.003 8.434-50.583-4.729-7.996-17.477-18.625-34.906-17.065-31.834 2.877-65.57 13.774-69.128 16.748-3.925 3.29-1.633 10.263-1.097 12.896l18.891 100.363c1.95 6.216 11.602 4.583 11.602 4.583l37.685-4.657c2.51-.56 4.168-2.925 3.875-5.485l-9.701-35.81c-1.121-3.486-.39-5.997 2.267-6.436 4.509-.731 9.531-2.072 15.039-3.998.147-.049.293-.122.439-.171 6.777-2.974 12.285-6.435 16.575-10.385M390.07 98.666c-.073 4.072-4.997 7.387-14.796 9.922-2.876.756-5.777-1.17-6.216-4.12l-1.145-7.703a5.084 5.084 0 0 1 3.266-5.485c3.827-1.39 7.654-1.975 11.457-1.73.365 0 .755.072 1.121.194 4.339 1.244 6.435 4.218 6.313 8.922Z" />
  <path fill="#2D2E87"
    d="M393.434 67.073s1.194-13.554 6.215-12.262c10.189 2.633 19.184 11.97 21.548 19.136 1.999 6.046 11.335 26.377-8.531 47.001-10.701 11.091-38.44 17.405-38.44 17.405s44.339-52.339 19.232-71.28h-.024Z" />
  <path fill="#FFD159"
    d="M402.184 121.265c15.211-10.946 10.287-31.984 4.632-41.564-4.729-7.996-17.429-16.114-34.906-17.064-4.729-.244-10.725.146-17.989 1.194-.658.122-1.34.195-1.999.268-8.531 1.317-18.744 3.438-30.615 6.411a5.028 5.028 0 0 0-3.705 5.876l21.255 104.507a5.025 5.025 0 0 0 6.021 3.9l21.06-4.729c2.511-.561 4.168-2.925 3.876-5.485l-3.876-33.203c-.317-2.681 1.536-5.094 4.193-5.533 4.509-.732 9.531-2.072 15.039-3.998.147-.049.293-.122.439-.171 6.777-2.974 12.285-6.436 16.575-10.385m-21.133-22.135c-.073 4.071-4.997 7.387-14.796 9.922-2.876.756-5.777-1.17-6.216-4.12l-1.145-7.703a5.084 5.084 0 0 1 3.266-5.485c3.827-1.39 7.654-1.975 11.457-1.73.365 0 .755.072 1.121.194 4.339 1.243 6.435 4.217 6.313 8.922Z" />
  <path fill="#2D2E87"
    d="M377.931 135.794s-2.194 1.658-1.365 4.73c.829 3.071 10.043 37.078 10.043 37.078s.219 2.682-6.216 2.925c-6.435.244-12.553-.268-12.553-.268s3.266-9.239 1.17-16.113c-2.097-6.85-2.779-25.207-2.779-25.207l3.876-3.096h7.8l.024-.049Zm-6.289-44.904s-4.485 2.17-3.753 5.558c.463 2.146.95 9.264 2.023 10.117.853.707-6.533 2.365-6.533 2.365s-3.437-4.657-3.461-4.827c-.024-.195-1.024-9.386-1.121-9.58-.098-.196 3.729-2.901 3.924-2.975.195-.073 8.921-.658 8.921-.658Z" />
  <path fill="url(#d)"
    d="M390.875 68.586c-.195-.073-.317-.098-.317-.098l-.61-.146c-3.485-.902-7.264-1.487-11.285-1.706-4.729-.244-10.75.146-17.989 1.194-.659.122-1.341.195-1.999.268-8.556 1.317-18.745 3.462-30.616 6.412a5.028 5.028 0 0 0-3.705 5.875l20.914 102.849c4.144-.902 18.452-4.022 20.597-4.681 2.511-.78 2.56-4.217 2.56-4.217s-3.876-29.984-3.9-33.739c-.025-3.729 2.486-5.753 7.191-6.63 4.728-.878 12.821-3.584 12.821-3.584 10.311-5.265 28.105-11.579 26.082-34.226-1.853-20.867-17.331-26.742-19.744-27.547v-.024Zm-3.072 34.519c-.048 2.901-2.559 5.411-7.532 7.532-.048 0-.097.049-.146.073-.219.098-.439.171-.682.269h-.049c-1.828.731-3.949 1.413-6.387 2.023a4.68 4.68 0 0 1-1.925.097c-2.755.439-4.729.561-4.729.561s-6.167-.658-7.264-6.679c-.463-1.122-1.755-10.629-1.755-10.629s-.341-4.998 6.143-6.777c3.339-.926 6.679-1.414 9.555-1.195h.341c1.975.147 12.261 1.439 14.162 11.775.025.122.049.268.073.39.147.78.195 1.609.171 2.486l.024.074Z"
    opacity=".69" />
  <path stroke="#2D2E87" stroke-miterlimit="10" stroke-width="1.18"
    d="M402.184 121.265c15.211-10.946 10.287-31.984 4.632-41.564-4.729-7.996-17.429-16.114-34.906-17.064-4.729-.244-10.725.146-17.989 1.194-.658.122-1.34.195-1.999.268-8.531 1.317-18.744 3.438-30.615 6.411a5.028 5.028 0 0 0-3.705 5.876l21.255 104.507a5.025 5.025 0 0 0 6.021 3.9l21.06-4.729c2.511-.561 4.168-2.925 3.876-5.485l-3.876-33.203c-.317-2.681 1.536-5.094 4.193-5.533 4.509-.732 9.531-2.072 15.039-3.998.147-.049.293-.122.439-.171 6.777-2.974 12.285-6.436 16.575-10.385m-21.133-22.135c-.073 4.071-4.997 7.387-14.796 9.922-2.876.756-5.777-1.17-6.216-4.12l-1.145-7.703a5.084 5.084 0 0 1 3.266-5.485c3.827-1.39 7.654-1.975 11.457-1.73.365 0 .755.072 1.121.194 4.339 1.243 6.435 4.217 6.313 8.922Z" />
  <path stroke="#fff" stroke-miterlimit="10" stroke-width=".83"
    d="M399.991 120.874c14.503-10.58 9.75-30.984 4.339-40.296-4.51-7.776-16.673-15.65-33.37-16.601-4.534-.244-10.262.122-17.185 1.121a16.87 16.87 0 0 1-1.901.244c-8.141 1.243-17.891 3.315-29.202 6.167-2.486.634-4.046 3.145-3.534 5.68l20.5 101.363c.536 2.681 3.144 4.388 5.752 3.778l20.086-4.534c2.388-.536 3.973-2.828 3.705-5.29l-3.779-32.203c-.292-2.584 1.463-4.948 3.998-5.363 4.314-.707 9.092-1.974 14.357-3.852.146-.048.293-.097.439-.17 6.459-2.877 11.724-6.216 15.795-10.044Z" />
  <path stroke="#fff" stroke-miterlimit="10" stroke-width=".83"
    d="M383.27 98.91c-.073 5.022-6.143 9.069-18.16 12.189-3.534.927-7.093-1.438-7.654-5.046l-1.413-9.459c-.439-2.9 1.267-5.728 4.022-6.728 4.704-1.706 9.384-2.413 14.064-2.12.463.024.926.097 1.365.219 5.314 1.536 7.898 5.192 7.752 10.945h.024Z" />
  <path fill="#2D2E87"
    d="m416.369 117.12-8.043 23.842c-.464 1.706-6.874 18.039-7.142 25.913-.074 1.999 1.243 3.779 3.144 4.413l38.221 12.53a4.182 4.182 0 0 0 5.46-2.56l4.217-12.14a4.267 4.267 0 0 1 3.534-2.828l12.529-1.658c1.852-.195 5.85 3.267 6.557 4.998l1.462 5.168c1.024 2.486 8.386 2.779 10.579 1.219l30.616-21.282a4.198 4.198 0 0 0 1.34-5.314L477.698 49.18c-.78-1.56-2.462-2.462-4.193-2.292l-37.952 12.043a5.804 5.804 0 0 0-3.34 2.828c-1.462 2.827-2.315 6.923-2.315 6.923l-13.309 47.78-.22.634v.024Zm55.308 21.672-8.799 1.219c-2.95.414-5.363-2.292-4.632-5.192l3.51-13.847a4.214 4.214 0 0 1 3.608-3.145c1.852-.195 3.583.854 4.314 2.56l5.265 12.603c1.073 2.535-.56 5.388-3.29 5.778l.024.024Z" />
  <path fill="#FFD159"
    d="m510.483 150.177-44.997-89.783c-.78-1.56-2.462-2.462-4.193-2.291l-22.352 2.364a4.258 4.258 0 0 0-3.607 3.072l-17.746 65.795-9.408 34.885a4.167 4.167 0 0 0 2.559 4.997l25.813 9.897a4.183 4.183 0 0 0 5.461-2.559l3.388-9.971c.536-1.536 1.901-2.657 3.534-2.803l19.379-2.048a4.182 4.182 0 0 1 4.314 2.584l3.339 8.191c1.024 2.511 4.096 3.389 6.289 1.853l26.862-18.917a4.2 4.2 0 0 0 1.341-5.315l.024.049Zm-47.142-10.653-8.799 1.219c-2.95.414-5.363-2.292-4.632-5.168l3.51-13.847a4.213 4.213 0 0 1 3.608-3.144c1.828-.195 3.583.853 4.314 2.559l5.265 12.604c1.073 2.535-.56 5.387-3.29 5.777h.024Z" />
  <path fill="#2D2E87"
    d="m461.123 123.434-2.999 12.067s0 2.291 1.292 3.364c1.219 1.024-7.483.804-7.483.804s-1.901-4.509-1.877-4.656c.025-.146 3.023-13.017 3.071-13.31.049-.292 2.487-3.413 2.828-3.535.341-.097 3.608.902 3.608.902l1.584 4.34-.024.024Zm3.949-64.893s4.826-9.58 11.505-10.702c0 0 .829.732 2.023 3.657 1.195 2.925 40.439 98.51 40.439 98.51s-2.267 3.023-6.85 2.219c-4.582-.829-29.518-57.556-29.518-57.556L465.072 58.54Z" />
  <path stroke="#2D2E87" stroke-miterlimit="10" stroke-width="1.18"
    d="m417.612 129.358-9.409 34.884c-.561 2.073.536 4.242 2.535 4.998l25.814 9.897a4.183 4.183 0 0 0 5.46-2.559l3.388-9.971a4.267 4.267 0 0 1 3.534-2.828l19.379-2.047c1.852-.195 3.632.853 4.314 2.584l3.34 8.191c1.023 2.486 4.095 3.412 6.289 1.852l26.861-18.917a4.2 4.2 0 0 0 1.341-5.314l-44.973-89.783c-.78-1.56-2.462-2.462-4.192-2.292l-22.353 2.365c-1.73.17-3.144 1.414-3.607 3.072l-17.745 65.795m45.728 10.19-8.8 1.219c-2.949.414-5.362-2.292-4.631-5.193l3.51-13.846a4.213 4.213 0 0 1 3.608-3.145c1.852-.195 3.583.853 4.314 2.56l5.265 12.603c1.073 2.535-.56 5.387-3.291 5.777l.025.025Z" />
  <path fill="url(#e)"
    d="m509.509 151.47-43.9-86.882-21.304 2.267c-1.731.17-3.145 1.414-3.608 3.072l-17.745 65.795-9.409 34.884c-.025.122-.049.269-.073.39 4.119.927 19.061 4.34 21.426 5.778 2.754 1.658 5.46.804 5.46.804s1.925-5.387 3.437-9.629c1.511-4.241 3.047-4.948 3.047-4.948s20.548-2.438 23.717-2.511c2.389-.073 4.266 4.461 5.606 8.142a4.354 4.354 0 0 1 1.804 2.048l1.341 3.315c.877.219 1.608-.244 1.608-.244s20.208-15.163 24.766-17.576c4.558-2.414 3.778-4.729 3.778-4.729l.049.024Zm-46.679-9.117c-7.045 1.219-12.017 1.072-12.017 1.072s-4.266-1.024-1.902-10.019l3.169-12.164s1.365-4.218 6.557-4.023c5.217.195 11.189 14.968 12.09 17.698.902 2.731-.853 6.241-7.897 7.436Z"
    opacity=".69" />
  <path stroke="#fff" stroke-miterlimit="10" stroke-width=".81"
    d="m418.831 128.163-8.994 34.324c-.537 2.048.536 4.168 2.461 4.924l24.961 9.8c2.145.853 3.778-.39 4.509-2.584l3.364-9.581c.512-1.511 2.486-2.705 4.046-2.876l18.721-1.975c1.803-.195 4.241.634 4.923 2.341l3.462 8.581c.975 2.462 4.046 2.34 6.167.804l24.887-17.796c1.633-1.17 2.169-3.388 1.268-5.217l-43.632-86.906a4.059 4.059 0 0 0-4.047-2.267l-21.596 2.267c-1.658.17-3.047 1.365-3.486 3.023l-17.038 63.162" />
  <path stroke="#fff" stroke-miterlimit="10" stroke-width=".83"
    d="m465.071 140.717-11.09 1.951c-3.705.658-6.874-2.438-6.045-5.924l3.973-16.723c.487-2.048 2.267-3.633 4.461-3.95 2.315-.341 4.582.805 5.533 2.804l7.117 14.773c1.438 2.974-.536 6.46-3.949 7.069Z" />
  <path stroke="#2D2E87" stroke-miterlimit="10" stroke-width="1.18"
    d="M242.759 189.712c24.289-10.481 35.483-38.669 25.002-62.96-10.48-24.291-38.666-35.486-62.954-25.004-24.289 10.481-35.482 38.67-25.002 62.96 10.48 24.291 38.666 35.486 62.954 25.004Z" />
  <path fill="#2D2E87"
    d="m165.913 274.965 21.279 2.828-2.315 23.915-7.215.097 2.266-17.722-8.58-1.585-3.339 18.04-6.386-2.682 4.314-22.891h-.024Zm35.928 3.584c4.144.292 6.972 2.267 8.434 5.948.415 1.462.537 3.071.39 4.827-.195 4.071-1.828 7.849-4.875 11.335-2.462 2.194-5.509 3.194-9.14 3.023-4.217-.536-6.874-2.998-7.947-7.362-.317-1.414-.439-2.999-.341-4.754.78-6.362 3.924-10.555 9.433-12.53 1.438-.39 2.803-.561 4.071-.512l-.025.025Zm-6.508 13.968c.146 2.316 1.146 3.51 2.998 3.608 1.682.073 3.437-1.048 5.265-3.364.61-1.024.927-2.316.927-3.852.097-2.291-.829-3.486-2.828-3.583-2.072-.098-3.973 1.316-5.752 4.241-.415 1-.61 1.999-.585 2.974l-.025-.024Zm39.269-14.87 1.511 20.746 1.975-.098 1.023 7.704-6.435.902-.487-3.486-11.871.633-.146 3.365-6.752-.074-.147-7.41c.756-.025 1.39-.098 1.902-.195 1.682-7.753 2.193-14.676 1.56-20.77l17.843-1.365.024.048Zm-12.7 21.697 7.849-.561-1.316-15.968-5.704.317c.341 4.535.049 9.946-.853 16.212h.024Zm32.517-24.037 3.706 4.681c-1.487.487-2.706 1.462-3.657 2.901l-2.364 3.559 7.142 5.192 2.145 1.585-5.436 6.704-2.462-2.292-4.582-4.412.804 8.337-7.946-1.487-1.536-21.55c.317-.049 2.218-.707 5.728-1.975l1.365 6.241 2.121-3.486c.902-1.901 2.559-3.242 4.924-3.998h.048Zm24.96.219c.463.683.756 1.56.853 2.633.268 3.023-1.34 5.607-4.826 7.752-1.511.78-2.876 1.316-4.046 1.56l2.291 8.776-6.167 2.34-8.214-23.183c2.803-1.17 5.167-2.048 7.142-2.633.146-.024.268-.073.414-.122 1.487-.438 2.73-.682 3.729-.78 3.705-.317 6.655.902 8.849 3.681l-.025-.024Zm-10.774 3.145 1.024 3.461c2.73-.95 4.022-1.925 3.9-2.925-.122-1.024-.682-1.585-1.706-1.682-1.121.073-2.194.463-3.218 1.17v-.024Zm28.447-14.749.511 5.534-9.579 4.046 1.731 3.73 6.849-2.389.926 4.802-5.728 2.341 1.633 3.876 9.58-3.754.658 5.68c.024.219-4.948 2.023-14.918 5.387l-9.457-22.111 17.818-7.191-.024.049Zm1.61-.146 19.744-8.386 10.164 21.769-6.167 3.73-7.069-16.382-8.19 2.998 6.313 17.235-6.849.951-7.946-21.891v-.024Zm22.18-9.556 6.216-2.51 4.972 8.556 2.219-11.701 5.362-2.706c4.12 9.068 7.386 16.577 9.775 22.452l-5.533 2.779-5.119-9.459-2.023 13.067-4.534 2.267c-3.388-5.997-7.142-13.603-11.31-22.769l-.025.024Zm34.71-19.087a186.636 186.636 0 0 1 4.948 5.826 115.458 115.458 0 0 0-5.313 2.999c3.729 5.875 6.8 11.067 9.238 15.528l-5.631 3.34c-1.877-2.414-4.607-6.753-8.214-12.969l-1.39-2.267a86.325 86.325 0 0 0-5.46 3.559c-1.316-2.852-2.291-5.192-2.901-7.07 4.096-2.535 9.019-5.509 14.723-8.922v-.024Zm8.094-4.998c3.29 4.705 5.435 7.63 6.435 8.703 1.901-1.804 3.729-3.121 5.508-4.023 3.754-.999 6.557-.39 8.361 1.829 1.17 1.487 1.804 3.12 1.877 4.875-.414 3.632-4.582 7.801-12.456 12.555l-15.015-18.869c1.389-2.169 3.144-3.851 5.314-5.095l-.024.025Zm11.7 15.26c2.364-1.95 3.29-3.388 2.754-4.29-.219-.561-.658-.707-1.292-.463-1.219.487-2.267 1.316-3.144 2.51l1.706 2.219-.024.024Zm8.458-30.277c2.804-2.901 6.119-3.608 9.921-2.17l-1.462 6.656c-1.512-.147-2.657.195-3.437.999-1.95 2.267-1.926 4.705.122 7.338 2.072 1.779 3.875 1.926 5.362.439.658-.683 1.048-1.951 1.195-3.803l6.386-1.682c1.755 4.704.78 8.922-2.925 12.652-2.73 2.632-6.338 2.925-10.798.902-1.463-.732-2.657-1.634-3.608-2.658-4.485-4.314-5.338-9.678-2.584-16.113.268-.732.878-1.585 1.828-2.56Zm13.822-10.921 1.072-1.487c2.608-2.608 4.827-4.656 6.655-6.143l18.549 17.771-5.094 4.681-6.484-6.022 2.316 10.166-6.143 1.877-2.121-9.044c-3.12 1.633-5.801 1.56-8.043-.219-.854-.61-1.487-1.317-1.926-2.121-1.194-3.462-.804-6.631 1.194-9.459h.025Zm6.727.902c-1.414 1.365-2.34 2.535-2.827 3.437-.342.854-.171 1.536.512 2.072 1.048.854 2.778 0 5.143-2.608l-2.828-2.901Z" />
  <path stroke="#fff" stroke-miterlimit="10" stroke-width=".82"
    d="M241.206 194.643c26.306-9.675 39.77-38.896 30.074-65.267-9.697-26.372-38.883-39.908-65.189-30.233-26.306 9.674-39.77 38.895-30.074 65.267 9.697 26.371 38.883 39.907 65.189 30.233Z" />
  <path fill="#D1970B" d="M191.264 185.867s15.844 27.034 54.747 11.457c33.248-13.335 37.051-47.195 21.475-69.72-8.946-12.92-76.222 58.263-76.222 58.263Z" style="mix-blend-mode:multiply" />
  <path fill="#2D2E87"
    d="m272.044 155.783-1.974-13.651s-1.244-5.973-2.145-8.679c-2.95-8.727-10.116-23.573-24.522-29.009-18.891-7.118-46.46-9.166-63.644 28.034 0 0 1.487-14.456 13.528-23.67 12.042-9.19 25.814-11.239 40-9.995 13.577 1.194 46.313 18.381 38.757 56.97Z" />
  <path fill="#fff"
    d="m153.921 240.666 2.974 4.242a4.334 4.334 0 0 1-1.049 6.021l-2.949 2.097c-1.024.731-2.437-.049-2.364-1.317l.658-10.287c.097-1.414 1.901-1.926 2.705-.756h.025Zm210.042-76.228 1.316 5.021c.61 2.316-.78 4.656-3.071 5.29l-3.486.927c-1.219.317-2.267-.902-1.755-2.048l4.193-9.41c.585-1.292 2.462-1.146 2.803.22Zm136.892-21.063 3.413 3.901a4.342 4.342 0 0 1-.39 6.094l-2.706 2.389c-.95.829-2.437.195-2.486-1.048l-.463-10.288c-.073-1.414 1.682-2.12 2.608-1.048h.024ZM328.424 85.771l-1.292-5.022a4.326 4.326 0 0 1 3.096-5.265l3.486-.927c1.218-.317 2.267.902 1.755 2.048l-4.217 9.41c-.585 1.292-2.462 1.121-2.803-.244h-.025Zm114.223-6.338-1.292-5.022a4.326 4.326 0 0 1 3.096-5.266l3.486-.926c1.218-.317 2.266.902 1.755 2.048l-4.217 9.41c-.585 1.291-2.462 1.12-2.804-.244h-.024ZM33.336 218.215l-2.584-4.485a4.313 4.313 0 0 1 1.585-5.9l3.12-1.828c1.097-.634 2.413.268 2.218 1.512l-1.584 10.189c-.22 1.39-2.072 1.731-2.78.512h.025Zm265.471-38.2c1.463-4.12-4.436-6.655-6.41-2.779-3.047 5.948-8.556 15.334-15.162 20.258-10.116 7.557.414 13.213 14.308-4.51 4.047-5.168 5.875-9.068 7.264-12.969ZM155.213 108.76c-1.56 4.071 4.29 6.752 6.362 2.925 3.168-5.875 8.897-15.138 15.6-19.916 10.286-7.314.682-13.14-14.406 4.192-4.314 4.949-6.069 8.923-7.556 12.799Z"
    opacity=".5" />
  <path fill="#682B17"
    d="M197.089 128.017s-.536-1.682-3.754-3.438c-3.217-1.73-7.946-4.022-13.552 2.536-3.681 4.29-2.706 12.042-3.413 19.087-.365 3.706-1.365 10.8 1.463 13.628 5.265 5.29 8.799 2.901 8.799 2.901s14.601-29.205 10.482-34.739l-.025.025Z" />
  <path fill="#010101" d="M193.067 137.987s-3.217.537-6.337-2.096c-2.925-2.462-5.85-1.414-7.142 2.803-1.268 4.096 2.145 19.576 7.727 14.773 5.606-4.802 5.752-15.48 5.752-15.48Z" />
  <path stroke="#1C0300" stroke-miterlimit="10" stroke-width=".42"
    d="M197.089 128.017s-.536-1.683-3.754-3.438c-3.217-1.731-7.386-2.681-13.016 3.876-4.437 5.168-5.363 13.676-4.217 21.526.317 2.121-.146 5.729.902 7.971 2.364 5.095 9.628 4.803 9.628 4.803s14.601-29.205 10.481-34.738h-.024Z" />
  <path fill="#C24E17"
    d="M228.534 116.291s-25.886 3.413-37.075 19.697c-11.212 16.284-5.996 36.396-1.998 46.391 3.997 9.995 15.649 18.697 34.783 15.943 19.111-2.755 39.83-16.991 45.485-30.789 5.655-13.822-2.974-35.25-10.092-41.905-7.117-6.68-19.597-11.287-31.103-9.313v-.024Z" />
  <path fill="#1C0300"
    d="M228.557 116.389c-15.941 2.73-33.224 10.531-39.781 26.279-4.241 10.215-3.948 21.77-1.194 32.374 6.996 33.812 47.581 25.304 67.617 8.508 15.381-11.799 18.696-25.28 12.017-43.295-4.923-16.821-21.474-26.279-38.659-23.866Zm-.024-.195c11.115-1.804 22.961 1.609 31.566 8.922 9.579 10.19 14.406 25.914 11.627 39.712-4.241 13.87-17.355 22.988-29.884 28.887-20.914 9.824-49.36 8.094-55.332-18.381-3.242-10.775-3.925-22.842.658-33.373 6.995-16.162 25.155-23.037 41.365-25.767Z" />
  <path fill="#010101" d="M252.836 126.969s-8.555-7.606-18.013-7.143l3.193-7.118 12.066-1.853 7.044 5.315-4.29 10.799Z" />
  <path fill="#682B17"
    d="M227.729 108.539s-1.828 9.751 5.704 11.117c5.874 1.072 5.387-6.168 7.946-6.729 2.56-.56 8.166-1.292 8.897 5.071.658 5.777 7.045 14.456 11.774 10.36 4.728-4.095.268-14.066-5.924-17.503-6.191-3.437-9.555-3.632-13.82-7.728-4.266-4.095-11.823-5.314-14.601 5.412h.024Z" />
  <path fill="#682B17" stroke="#1D1D1B" stroke-miterlimit="10" stroke-width=".42"
    d="M227.73 108.541s-3.145 9.507 4.387 11.018c7.508 1.512 5.777-4.583 9.287-6.143 5.241-2.34 9.433 1.195 8.922 6.85-.634 7.094 8.092 13.7 12.699 9.483 5.582-5.095-2.462-13.895-7.776-18.868-2.925-2.731-6.435-6.509-12.845-9.093-5.607-2.267-11.213-3.437-14.699 6.777l.025-.024Z" />
  <path fill="#311D13"
    d="M244.67 168.728c-.317 1.487-1.463 5.582-4.729 6.728-.244.073-.22.439.049.488 1.535.244 4.314.341 5.85-1.414 1.779-2.023.048-4.803-.732-5.875a.243.243 0 0 0-.438.097v-.024Z" />
  <path fill="#5E2E24"
    d="M214.713 162.487s1.243-3.437 7.825-5.046c6.24-1.511 14.162 3.9 21.621.195 7.458-3.705 3.047-16.943-.585-21.038-3.632-4.095-15.016-10.824-31.128-4.217-16.112 6.606-20.524 19.161-18.891 27.912 1.633 8.752 7.118 15.577 13.261 14.407 6.167-1.17 7.873-12.213 7.873-12.213h.024Z" />
  <path fill="#010101"
    d="M202.475 147.958c.707.61.341 1.78-.585 1.877-.219 0-.463.025-.731 0-2.023-.17-3.266 1.585-3.242 3.218.024 1.658-2.194-2.462.122-4.485 2.169-1.902 3.656-1.292 4.436-.634v.024Zm20.721-9.58c.048.927 1.267 1.243 1.779.463a5.807 5.807 0 0 1 2.706-2.194c1.56-.609 2.803-.438 3.485-.243.195.048.342-.171.22-.317-.585-.805-2.023-2.146-4.924-1.195-2.389.805-3.315 2.34-3.266 3.486Z" />
  <path fill="#FFFBF9" d="M237.967 146.593c1.268 4.193-.024 8.313-2.9 9.166-2.877.853-6.216-1.828-7.484-6.046-1.267-4.193.025-8.312 2.901-9.166 2.876-.853 6.216 1.829 7.483 6.046Z" />
  <path fill="#010101" d="M235.895 149.664c.365 2.097-.561 3.998-2.072 4.242-1.511.268-2.998-1.219-3.364-3.315-.365-2.097.561-3.998 2.072-4.242 1.511-.268 2.998 1.219 3.364 3.315Z" />
  <path fill="#fff" d="M232.019 147.105c.171.951-.317 1.828-1.072 1.975-.756.122-1.512-.537-1.682-1.487-.171-.951.317-1.829 1.072-1.975.756-.122 1.511.536 1.682 1.487Z" />
  <path fill="#FFFBF9" d="M210.082 159.684c1.852 3.925 1.072 7.996-1.707 8.947-2.705.902-6.191-1.536-7.8-5.314-1.56-3.682-.828-7.387 1.658-8.46 2.559-1.072 6.094 1.024 7.873 4.827h-.024Z" />
  <path fill="#010101" d="M209.472 161.465c.731 1.999.195 4.022-1.243 4.558-1.438.537-3.193-.658-3.924-2.632-.732-1.999-.195-4.023 1.243-4.559 1.438-.536 3.193.658 3.924 2.633Z" />
  <path fill="#fff" d="M206.4 159.465c.342.902.025 1.853-.707 2.145-.731.268-1.584-.243-1.925-1.145-.341-.902-.025-1.853.707-2.146.731-.268 1.584.244 1.925 1.146Z" />
  <path fill="#010101"
    d="M232.165 159.928s-5.996-2.414-14.284.536c-8.263 2.95-7.629 8.947-6.459 12.043s2.315 6.094 10.725 3.9c8.409-2.194 13.796-5.022 14.869-8.776 1.072-3.754-2.023-6.874-4.826-7.703h-.025Z" />
  <path fill="#fff" d="M228.996 162.316c-.122-.536-.561-.951-1.097-1.121-1.121-.342-3.802-1.146-4.948.707-1.219 1.95 1.536 2.291 3.9 1.999 1.779-.22 2.316-.78 2.121-1.585h.024Z" />
  <path fill="#2D2E87"
    d="M223.975 99.13c-.097-.44-9.262-.147-17.087 5.899-6.094 4.705-12.919 10.555-18.623 24.377-7.458 18.113-4.217 37.079-4.217 37.079s-2.291 6.606-2.583 5.582c-.293-1.024-6.435-8.751-6.435-24.353 0-4.973-.317-9.58.853-13.603 2.389-8.239 7.507-14.309 9.872-18.283 2.73-4.607 7.264-4.193 7.312-4.242l12.334-9.556 5.68-1.804 12.894-1.097Z" />
  <path fill="#2D2E87"
    d="M272.044 155.784s.488-14.017-3.754-23.5c-4.241-9.507-7.459-18.746-24.911-27.839-17.892-9.337-46.46-9.166-63.644 28.034 0 0 1.487-14.456 13.528-23.67 12.041-9.19 25.813-11.239 40-9.995 13.577 1.194 46.313 18.381 38.757 56.97h.024Z" />
  <defs>
    <linearGradient id="b" x1="75.257" x2="135.193" y1="192.111" y2="308.013" gradientUnits="userSpaceOnUse">
      <stop stop-color="#fff" />
      <stop offset=".75" stop-color="#fff" stop-opacity="0" />
    </linearGradient>
    <linearGradient id="c" x1="193.21" x2="288.714" y1="100.35" y2="239.121" gradientUnits="userSpaceOnUse">
      <stop stop-color="#fff" />
      <stop offset=".72" stop-color="#fff" stop-opacity="0" />
    </linearGradient>
    <linearGradient id="d" x1="369.029" x2="380.691" y1="99.643" y2="186.32" gradientUnits="userSpaceOnUse">
      <stop stop-color="#fff" />
      <stop offset=".69" stop-color="#fff" stop-opacity="0" />
    </linearGradient>
    <linearGradient id="e" x1="454.456" x2="465.143" y1="97.956" y2="194.02" gradientUnits="userSpaceOnUse">
      <stop stop-color="#fff" />
      <stop offset=".71" stop-color="#fff" stop-opacity="0" />
    </linearGradient>
  </defs>
</svg>
