<svg width="552" height="356" viewBox="0 0 552 356" fill="none" xmlns="http://www.w3.org/2000/svg">
  <g opacity="0.49">
    <mask id="mask0_241_4760" style="mask-type:luminance" maskUnits="userSpaceOnUse" x="44" y="40" width="451" height="298">
      <path
        d="M48.278 256.029C26.8521 182.457 106.95 93.2107 229.021 56.2054C351.093 19.1757 463.659 50.111 490.301 121.952C515.627 190.21 432.312 283.893 310.264 320.923C188.193 357.952 69.9477 330.357 48.278 256.029Z"
        fill="white" />
    </mask>
    <g mask="url(#mask0_241_4760)">
      <path
        d="M232.751 49.8675C206.572 48.0391 150.655 152.424 148.948 178.387L132.885 149.548C127.961 139.748 122.794 135.384 110.021 143.648L35.3836 206.689C32.7754 208.249 31.8248 211.565 33.2385 214.246L79.2836 302.128C80.7461 304.931 83.793 309.953 90.4719 305.541L119.381 290.061C122.184 288.598 123.257 285.136 121.794 282.333L90.2525 219.804C88.79 217.001 94.177 211.784 97.1995 209.419C97.2726 209.371 97.3458 209.322 97.4189 209.273L101.173 206.884C103.854 205.543 104.439 207.81 105.975 210.394L129.814 277.116C131.154 279.335 137.321 279.822 139.515 278.457L185.17 252.129C187.9 250.447 188.705 246.863 186.974 244.182L178.467 228.922C195.237 238.478 221.368 255.591 263.586 241.33C306.803 226.703 333.689 198.961 333.958 159.616C334.201 123.951 332.519 56.8395 232.751 49.8919V49.8675ZM233.799 211.175C216.078 217.488 176.151 187.943 169.838 170.244C164.841 156.276 185.414 99.6223 205.914 90.2369C227.681 80.2664 270.679 117.954 277.017 135.677C283.354 153.399 251.52 204.885 233.799 211.199V211.175Z"
        fill="#136491" />
      <path
        d="M427.267 86.19C424.22 77.4141 413.641 61.5442 396.237 59.5452C391.533 59.0089 380.808 75.2444 373.52 75.8539C372.862 75.927 372.179 75.9758 371.521 76.0002C362.916 76.7802 352.606 78.316 340.589 80.5588C337.956 81.0463 336.152 83.5329 336.518 86.19L334.3 189.454C334.592 191.526 337.737 196.133 342.587 196.962C343.319 197.084 348.291 196.938 349.022 196.816L388.437 190.015C390.972 189.6 392.776 187.357 392.654 184.773L385.659 152.985C385.512 150.303 387.511 147.987 390.192 147.719C394.702 147.256 394.994 147.207 400.454 145.647C400.698 145.574 400.966 145.477 401.234 145.403C408.035 142.868 413.666 139.797 418.127 136.189C418.2 136.115 418.297 136.067 418.37 136.018C434.068 125.974 431.314 97.8182 427.267 86.2144V86.19ZM388.072 120.563C382.709 122.098 377.249 118.393 376.762 112.835C376.347 108.252 379.54 104.01 384.099 103.328C386.463 102.962 388.779 102.889 391.094 103.133C391.947 103.23 392.801 103.449 393.605 103.791C397.237 105.4 398.87 108.374 398.504 112.737C398.236 116.053 394.775 118.685 388.096 120.587L388.072 120.563Z"
        fill="#136491" />
      <path
        d="M521.599 168.1L481.648 74.2944C480.965 72.6855 479.356 71.686 477.601 71.7591L455.152 72.783C454.03 72.8317 453.055 73.5631 452.69 74.6357L430.191 141.699L402.671 162.517C401.989 164.565 398.333 177.607 407.961 180.752L445.84 195.159C448.01 196.134 450.545 195.135 451.447 192.941L455.688 180.581C456.297 179.07 457.735 178.046 459.369 177.973L471.946 176.364C472.946 176.315 473.726 176.9 474.335 177.729C475.651 179.557 477.358 181.069 479.381 182.068L490.008 187.407C490.862 189.966 498.199 190.673 500.514 189.26L519.99 173.292C521.745 172.195 522.452 169.977 521.648 168.075L521.599 168.1ZM475.188 154.619L466.34 155.301C463.366 155.521 462.123 153.936 463.025 151.108L467.632 136.555C468.168 134.873 468.436 133.41 470.167 133.337C472.019 133.264 473.701 134.385 474.311 136.141L478.82 149.061C479.722 151.645 477.918 154.399 475.188 154.619Z"
        fill="#136491" />
    </g>
  </g>
  <path
    d="M122.843 193.913C122.843 193.913 125.256 190.086 120.941 191.646C114.726 193.889 101.246 202.104 102.806 205.444C105.292 210.782 131.618 271.117 137.151 270.654C144.171 270.044 146.292 266.583 145.975 265.998L114.701 204.03C111.874 199.764 122.843 193.937 122.843 193.937V193.913Z"
    fill="#2D2E87" />
  <path
    d="M120.112 143.183C113.823 134.87 104.561 142.817 101.904 144.402L9.0337 211.782C6.42554 213.342 5.4749 216.657 6.88867 219.339L64.0245 307.098C68.6315 314.582 80.2829 306.733 81.7942 306.172L107.315 292.496C110.118 291.033 111.191 287.572 109.728 284.768L78.1866 222.24C76.7241 219.436 82.0379 215.853 85.0605 213.488C85.1336 213.439 85.743 212.976 85.8161 212.927L86.5961 212.708C89.2774 211.367 89.8624 213.634 91.3981 216.218L126.913 274.457C127.693 275.749 128.887 277.163 130.399 278.065C132.056 279.04 134.128 278.967 135.761 277.943L173.104 254.564C175.834 252.882 176.639 249.299 174.908 246.617L120.088 143.183H120.112Z"
    fill="#2D2E87" />
  <path
    d="M120.331 143.549C120.331 143.549 105.706 157.981 108.338 163.637C110.825 168.975 158.966 244.205 164.402 252.688C164.743 253.224 165.352 253.541 165.986 253.468C167.571 253.322 170.764 252.493 174.688 248.544C175.151 248.081 175.273 247.349 174.956 246.764L124.207 151.082C121.062 144.793 120.307 143.549 120.307 143.549H120.331Z"
    fill="#2D2E87" />
  <path
    d="M107.803 164.708C106.145 162.124 102.708 161.32 100.076 162.88L22.0988 209.222C19.4906 210.782 18.54 214.097 19.9537 216.779L65.9988 304.66C67.4613 307.464 70.9226 308.537 73.7014 307.074L97.1993 294.788C100.002 293.325 101.075 289.863 99.6124 287.06L68.5826 228.31C67.0957 225.482 68.217 221.996 71.0689 220.557L85.1822 210.758C87.8635 209.417 91.1054 210.343 92.6655 212.903L128.497 272.311C130.13 275.042 133.689 275.895 136.395 274.213L161.355 258.782C164.085 257.1 164.89 253.516 163.159 250.835L107.754 164.684L107.803 164.708Z"
    fill="#FFD159" />
  <g opacity="0.69">
    <path
      d="M160.283 248.956L106.389 165.804L30.2404 211.074C27.6322 212.634 26.6816 215.949 28.0953 218.631L72.8485 304.074C72.8485 304.074 91.4957 294.713 95.2739 292.568C99.0764 290.423 98.1745 287.108 98.1745 287.108C98.1745 287.108 71.6541 235.768 67.6809 229.332C63.7078 222.897 66.8522 220.02 66.8522 220.02C66.8522 220.02 75.9686 213.268 81.1118 209.806C81.1118 209.806 88.5706 205.32 91.9588 204.613C94.7376 204.028 100.807 214.73 100.807 214.73L135.201 271.774L160.868 256.148C163.452 253.929 160.234 248.932 160.234 248.932L160.283 248.956Z"
      fill="url(#paint0_linear_241_4760)" />
  </g>
  <path
    d="M107.144 163.538C105.487 160.954 102.074 160.149 99.4172 161.709L21.4404 208.051C18.8323 209.612 17.8816 212.927 19.2954 215.609L65.3405 303.49C66.803 306.293 70.2643 307.366 73.0431 305.903L96.541 293.617C99.3441 292.154 100.417 288.693 98.9541 285.889L67.9243 227.139C66.4374 224.311 67.5586 220.825 70.4106 219.387L84.5239 209.587C87.2052 208.246 90.4471 209.173 92.0071 211.732L127.839 271.141C129.472 273.871 133.031 274.724 135.737 273.042L160.697 257.611C163.427 255.929 164.231 252.346 162.501 249.664L107.095 163.513L107.144 163.538Z"
    stroke="#2D2E87" stroke-width="1.18" stroke-miterlimit="10" />
  <path
    d="M197.187 56.0329C148.656 73.853 118.942 133.773 136.492 181.578C154.043 229.383 214.737 254.394 263.244 236.574C311.776 218.754 340.831 162.027 323.281 114.247C305.731 66.4422 245.718 38.2372 197.187 56.0573V56.0329ZM258.223 195.034C231.629 204.81 195.798 191.134 186.194 164.952C176.565 138.771 195.359 107.957 223.391 100.181C250.691 92.6238 262.879 105.422 272.507 131.604C282.135 157.785 284.816 185.259 258.247 195.034H258.223Z"
    fill="#2D2E87" stroke="#2D2E87" stroke-width="1.18" stroke-miterlimit="10" />
  <path
    d="M261.099 56.8605L255.127 63.3938C253.981 64.6614 254.444 66.6847 256.053 67.2942C267.217 71.4871 301.538 89.1366 301.294 146.936C301.001 215.974 252.226 234.891 252.226 234.891C252.226 234.891 256.59 248.03 288.838 223.823C311.19 207.051 330.398 185.185 331.373 128.433C331.666 110.491 320.282 97.6688 299.466 77.2159C287.181 65.1246 270.483 58.1769 264.658 55.9829C263.39 55.5198 261.976 55.861 261.075 56.8605H261.099Z"
    fill="#2D2E87" />
  <path
    d="M193.019 68.1733C147.169 85.0182 123.647 135.87 140.49 181.724C157.333 227.579 208.18 251.103 254.03 234.258C299.881 217.413 323.403 166.562 306.559 120.707C289.716 74.8527 238.869 51.3283 193.019 68.1733ZM240.234 196.717C215.103 205.956 187.242 193.06 178.028 167.927C168.814 142.793 181.684 114.93 206.815 105.715C231.946 96.4757 259.807 109.372 269.021 134.505C278.26 159.638 265.365 187.502 240.234 196.717Z"
    fill="#FFD159" />
  <g opacity="0.69">
    <path
      d="M163.621 212.659C163.987 213.074 164.352 213.488 164.742 213.927C166.522 215.902 168.374 217.779 170.324 219.583C191.799 238.695 223.633 238.914 237.893 237.403C253.444 235.745 310.799 214 310.068 151.398C309.337 89.869 255.979 70.1231 254.175 69.4893C236.942 64.6869 218.1 65.0526 200.038 71.7077C154.188 88.5526 130.665 139.404 147.509 185.259C151.311 195.595 156.845 204.81 163.645 212.684L163.621 212.659ZM190.556 116.221C210.934 96.3535 228.289 102.545 239.038 105.3C240.355 105.641 243.621 106.397 244.937 107.762C259.684 111.687 270.361 122.633 276.016 138.039C285.254 163.173 272.359 191.036 247.228 200.251C232.847 205.541 217.564 203.567 205.4 196.18C205.4 196.18 186.119 194.376 175.882 163.075C175.882 163.075 170.178 136.065 190.556 116.221Z"
      fill="url(#paint1_linear_241_4760)" />
  </g>
  <path
    d="M193.019 68.1733C147.169 85.0182 123.647 135.87 140.49 181.724C157.333 227.579 208.18 251.103 254.03 234.258C299.881 217.413 323.403 166.562 306.559 120.707C289.716 74.8527 238.869 51.3283 193.019 68.1733ZM240.234 196.717C215.103 205.956 187.242 193.06 178.028 167.927C168.814 142.793 181.684 114.93 206.815 105.715C231.946 96.4757 259.807 109.372 269.021 134.505C278.26 159.638 265.365 187.502 240.234 196.717ZM240.234 196.717C215.103 205.956 187.242 193.06 178.028 167.927C168.814 142.793 181.684 114.93 206.815 105.715C231.946 96.4757 259.807 109.372 269.021 134.505C278.26 159.638 265.365 187.502 240.234 196.717Z"
    stroke="#2D2E87" stroke-width="1.18" stroke-miterlimit="10" />
  <g style="mix-blend-mode:multiply" opacity="0.38">
    <path
      d="M192.263 123.924C192.263 123.924 188.534 130.433 184.146 143.938C181.124 153.275 180.319 170.364 189.582 182.187C198.845 194.01 225.024 195.936 225.024 195.936L225.852 160.808L214.445 135.211L192.288 123.949L192.263 123.924Z"
      fill="#1D1D1B" />
  </g>
  <path
    d="M411.228 125.801C426.438 114.856 425.317 84.7982 419.662 75.2178C414.933 67.2219 402.185 56.5932 384.756 58.1534C352.922 61.03 319.186 71.9268 315.628 74.9009C311.703 78.1919 313.995 85.1639 314.531 87.7967L333.422 188.16C335.372 194.376 345.024 192.743 345.024 192.743L382.709 188.086C385.219 187.526 386.877 185.161 386.584 182.601L376.883 146.791C375.762 143.305 376.493 140.794 379.15 140.355C383.659 139.624 388.681 138.283 394.189 136.357C394.336 136.308 394.482 136.235 394.628 136.186C401.405 133.212 406.913 129.751 411.203 125.801M390.07 103.667C389.997 107.738 385.073 111.053 375.274 113.588C372.398 114.344 369.497 112.418 369.058 109.468L367.913 101.765C367.572 99.4004 368.937 97.1089 371.179 96.2801C375.006 94.8906 378.833 94.3055 382.636 94.5493C383.001 94.5493 383.391 94.6224 383.757 94.7443C388.096 95.9876 390.192 98.9617 390.07 103.667Z"
    fill="#2D2E87" />
  <path
    d="M393.434 72.0729C393.434 72.0729 394.628 58.5189 399.649 59.811C409.838 62.4437 418.833 71.7804 421.197 78.9474C423.196 84.9931 432.532 105.324 412.666 125.948C401.965 137.039 374.226 143.353 374.226 143.353C374.226 143.353 418.565 91.0144 393.458 72.0729H393.434Z"
    fill="#2D2E87" />
  <path
    d="M402.184 126.265C417.395 115.319 412.471 94.2814 406.816 84.7009C402.087 76.705 389.387 68.5873 371.91 67.6366C367.181 67.3928 361.185 67.7828 353.921 68.8311C353.263 68.953 352.581 69.0261 351.922 69.0992C343.391 70.4156 333.178 72.5365 321.307 75.5105C318.699 76.1687 317.066 78.7528 317.602 81.3856L338.857 185.893C339.418 188.647 342.124 190.403 344.878 189.793L365.938 185.064C368.449 184.503 370.106 182.139 369.814 179.579L365.938 146.376C365.621 143.695 367.474 141.282 370.131 140.843C374.64 140.111 379.662 138.771 385.17 136.845C385.317 136.796 385.463 136.723 385.609 136.674C392.386 133.7 397.894 130.238 402.184 126.289M381.051 104.154C380.978 108.225 376.054 111.541 366.255 114.076C363.379 114.832 360.478 112.906 360.039 109.956L358.894 102.253C358.553 99.8882 359.918 97.5967 362.16 96.7679C365.987 95.3784 369.814 94.7933 373.617 95.0371C373.982 95.0371 374.372 95.1102 374.738 95.2321C379.077 96.4753 381.173 99.4494 381.051 104.154Z"
    fill="#FFD159" />
  <path
    d="M377.931 140.794C377.931 140.794 375.737 142.452 376.566 145.524C377.395 148.595 386.609 182.602 386.609 182.602C386.609 182.602 386.828 185.284 380.393 185.527C373.958 185.771 367.84 185.259 367.84 185.259C367.84 185.259 371.106 176.02 369.01 169.146C366.913 162.296 366.231 143.939 366.231 143.939L370.107 140.843H377.907L377.931 140.794Z"
    fill="#2D2E87" />
  <path
    d="M371.642 95.8901C371.642 95.8901 367.157 98.0597 367.889 101.448C368.352 103.593 368.839 110.712 369.912 111.565C370.765 112.272 363.379 113.93 363.379 113.93C363.379 113.93 359.942 109.273 359.918 109.103C359.894 108.908 358.894 99.7174 358.797 99.5224C358.699 99.3274 362.526 96.6215 362.721 96.5483C362.916 96.4752 371.642 95.8901 371.642 95.8901Z"
    fill="#2D2E87" />
  <g opacity="0.69">
    <path
      d="M390.875 73.5858C390.68 73.5127 390.558 73.4883 390.558 73.4883L389.948 73.342C386.463 72.44 382.684 71.855 378.663 71.6356C373.934 71.3918 367.913 71.7818 360.674 72.8301C360.015 72.952 359.333 73.0251 358.675 73.0982C350.119 74.4146 339.93 76.5599 328.059 79.5096C325.451 80.1678 323.818 82.7518 324.354 85.3846L345.268 188.234C349.412 187.332 363.72 184.212 365.865 183.553C368.376 182.773 368.425 179.336 368.425 179.336C368.425 179.336 364.549 149.352 364.525 145.597C364.5 141.868 367.011 139.844 371.716 138.967C376.444 138.089 384.537 135.383 384.537 135.383C394.848 130.118 412.642 123.804 410.619 101.157C408.766 80.2896 393.288 74.4146 390.875 73.6102V73.5858ZM387.803 108.105C387.755 111.006 385.244 113.516 380.271 115.637C380.223 115.637 380.174 115.686 380.125 115.71C379.906 115.808 379.686 115.881 379.443 115.979C379.443 115.979 379.418 115.979 379.394 115.979C377.566 116.71 375.445 117.392 373.007 118.002C372.349 118.173 371.716 118.197 371.082 118.099C368.327 118.538 366.353 118.66 366.353 118.66C366.353 118.66 360.186 118.002 359.089 111.981C358.626 110.859 357.334 101.352 357.334 101.352C357.334 101.352 356.993 96.3545 363.477 94.575C366.816 93.6486 370.156 93.1611 373.032 93.3805C373.081 93.3805 373.129 93.3805 373.178 93.3805C373.227 93.3805 373.3 93.3805 373.373 93.3805C375.348 93.5267 385.634 94.8187 387.535 105.155C387.56 105.277 387.584 105.423 387.608 105.545C387.755 106.325 387.803 107.154 387.779 108.031L387.803 108.105Z"
      fill="url(#paint2_linear_241_4760)" />
  </g>
  <path
    d="M402.184 126.265C417.395 115.319 412.471 94.2814 406.816 84.7009C402.087 76.705 389.387 68.5873 371.91 67.6366C367.181 67.3928 361.185 67.7828 353.921 68.8311C353.263 68.953 352.581 69.0261 351.922 69.0992C343.391 70.4156 333.178 72.5365 321.307 75.5105C318.699 76.1687 317.066 78.7528 317.602 81.3856L338.857 185.893C339.418 188.647 342.124 190.403 344.878 189.793L365.938 185.064C368.449 184.503 370.106 182.139 369.814 179.579L365.938 146.376C365.621 143.695 367.474 141.282 370.131 140.843C374.64 140.111 379.662 138.771 385.17 136.845C385.317 136.796 385.463 136.723 385.609 136.674C392.386 133.7 397.894 130.238 402.184 126.289M381.051 104.154C380.978 108.225 376.054 111.541 366.255 114.076C363.379 114.832 360.478 112.906 360.039 109.956L358.894 102.253C358.553 99.8882 359.918 97.5967 362.16 96.7679C365.987 95.3784 369.814 94.7933 373.617 95.0371C373.982 95.0371 374.372 95.1102 374.738 95.2321C379.077 96.4753 381.173 99.4494 381.051 104.154Z"
    stroke="#2D2E87" stroke-width="1.18" stroke-miterlimit="10" />
  <path
    d="M416.369 122.12L408.326 145.962C407.862 147.668 401.452 164.001 401.184 171.875C401.11 173.874 402.427 175.654 404.328 176.288L442.549 188.818C444.767 189.671 447.253 188.501 448.009 186.258L452.226 174.118C452.762 172.582 454.127 171.485 455.76 171.29L468.289 169.632C470.141 169.437 474.139 172.899 474.846 174.63L476.308 179.798C477.332 182.284 484.694 182.577 486.887 181.017L517.503 159.735C519.209 158.541 519.77 156.273 518.843 154.421L477.698 54.1798C476.918 52.6196 475.236 51.7176 473.505 51.8883L435.553 63.9308C434.115 64.394 432.92 65.4179 432.213 66.7586C430.751 69.5864 429.898 73.6819 429.898 73.6819L416.589 121.462L416.369 122.096V122.12ZM471.677 143.792L462.878 145.011C459.928 145.425 457.515 142.719 458.246 139.819L461.756 125.972C462.195 124.266 463.633 123.022 465.364 122.827C467.216 122.632 468.947 123.681 469.678 125.387L474.943 137.99C476.016 140.525 474.383 143.378 471.653 143.768L471.677 143.792Z"
    fill="#2D2E87" />
  <path
    d="M510.483 155.177L465.486 65.3941C464.706 63.8339 463.024 62.932 461.293 63.1026L438.941 65.4672C437.235 65.6623 435.797 66.8811 435.334 68.5388L417.588 134.334L408.18 169.219C407.619 171.291 408.716 173.46 410.739 174.216L436.552 184.113C438.771 184.967 441.257 183.796 442.013 181.554L445.401 171.583C445.937 170.047 447.302 168.926 448.935 168.78L468.314 166.732C470.166 166.537 471.921 167.585 472.628 169.316L475.967 177.507C476.991 180.018 480.063 180.896 482.256 179.36L509.118 160.443C510.824 159.248 511.385 156.981 510.459 155.128L510.483 155.177ZM463.341 144.524L454.542 145.743C451.592 146.157 449.179 143.451 449.91 140.575L453.42 126.728C453.859 125.022 455.297 123.779 457.028 123.584C458.856 123.389 460.611 124.437 461.342 126.143L466.607 138.747C467.68 141.282 466.047 144.134 463.317 144.524H463.341Z"
    fill="#FFD159" />
  <path
    d="M461.123 128.434L458.124 140.501C458.124 140.501 458.124 142.792 459.416 143.865C460.635 144.889 451.933 144.669 451.933 144.669C451.933 144.669 450.032 140.16 450.056 140.013C450.081 139.867 453.079 126.996 453.127 126.703C453.176 126.411 455.614 123.29 455.955 123.168C456.296 123.071 459.563 124.07 459.563 124.07L461.147 128.41L461.123 128.434Z"
    fill="#2D2E87" />
  <path
    d="M465.072 63.5412C465.072 63.5412 469.898 53.9607 476.577 52.8394C476.577 52.8394 477.406 53.5707 478.6 56.496C479.795 59.4213 519.039 155.006 519.039 155.006C519.039 155.006 516.772 158.029 512.189 157.225C507.607 156.396 482.671 99.6689 482.671 99.6689L465.072 63.5412Z"
    fill="#2D2E87" />
  <path
    d="M417.612 134.358L408.203 169.242C407.642 171.315 408.739 173.484 410.738 174.24L436.552 184.137C438.77 184.99 441.256 183.82 442.012 181.578L445.4 171.607C445.936 170.071 447.301 168.974 448.934 168.779L468.313 166.732C470.165 166.537 471.945 167.585 472.627 169.316L475.967 177.507C476.99 179.993 480.062 180.919 482.256 179.359L509.117 160.442C510.823 159.248 511.384 156.98 510.458 155.128L465.485 65.3448C464.705 63.7846 463.023 62.8826 461.293 63.0533L438.94 65.4179C437.21 65.5886 435.796 66.8318 435.333 68.4895L417.588 134.285M463.316 144.475L454.516 145.694C451.567 146.108 449.154 143.402 449.885 140.501L453.395 126.655C453.834 124.948 455.272 123.705 457.003 123.51C458.855 123.315 460.586 124.363 461.317 126.07L466.582 138.673C467.655 141.208 466.022 144.06 463.291 144.45L463.316 144.475Z"
    stroke="#2D2E87" stroke-width="1.18" stroke-miterlimit="10" />
  <g opacity="0.69">
    <path
      d="M509.509 156.47L465.609 69.5879L444.305 71.855C442.574 72.0257 441.16 73.2689 440.697 74.9266L422.952 140.722L413.543 175.606C413.518 175.728 413.494 175.875 413.47 175.996C417.589 176.923 432.531 180.336 434.896 181.774C437.65 183.432 440.356 182.578 440.356 182.578C440.356 182.578 442.281 177.191 443.793 172.949C445.304 168.708 446.84 168.001 446.84 168.001C446.84 168.001 467.388 165.563 470.557 165.49C472.946 165.417 474.823 169.951 476.163 173.632C476.943 174.095 477.601 174.802 477.967 175.68L479.308 178.995C480.185 179.214 480.916 178.751 480.916 178.751C480.916 178.751 501.124 163.588 505.682 161.175C510.24 158.761 509.46 156.446 509.46 156.446L509.509 156.47ZM462.83 147.353C455.785 148.572 450.813 148.425 450.813 148.425C450.813 148.425 446.547 147.401 448.911 138.406L452.08 126.242C452.08 126.242 453.445 122.024 458.637 122.219C463.854 122.414 469.826 137.187 470.727 139.917C471.629 142.648 469.874 146.158 462.83 147.353Z"
      fill="url(#paint3_linear_241_4760)" />
  </g>
  <path
    d="M242.759 194.712C267.048 184.231 278.242 156.043 267.761 131.752C257.281 107.461 229.095 96.2665 204.807 106.748C180.518 117.229 169.325 145.418 179.805 169.708C190.285 193.999 218.471 205.194 242.759 194.712Z"
    stroke="#2D2E87" stroke-width="1.18" stroke-miterlimit="10" />
  <path d="M165.913 279.965L187.192 282.793L184.877 306.708L177.662 306.805L179.928 289.083L171.348 287.498L168.009 305.538L161.623 302.856L165.937 279.965H165.913Z" fill="#2D2E87" />
  <path
    d="M201.841 283.549C205.985 283.841 208.813 285.816 210.275 289.497C210.69 290.959 210.812 292.568 210.665 294.324C210.47 298.395 208.837 302.173 205.79 305.659C203.328 307.853 200.281 308.853 196.65 308.682C192.433 308.146 189.776 305.684 188.703 301.32C188.386 299.906 188.264 298.321 188.362 296.566C189.142 290.204 192.286 286.011 197.795 284.036C199.233 283.646 200.598 283.475 201.866 283.524L201.841 283.549ZM195.333 297.517C195.479 299.833 196.479 301.027 198.331 301.125C200.013 301.198 201.768 300.077 203.596 297.761C204.206 296.737 204.523 295.445 204.523 293.909C204.62 291.618 203.694 290.423 201.695 290.326C199.623 290.228 197.722 291.642 195.943 294.567C195.528 295.567 195.333 296.566 195.358 297.541L195.333 297.517Z"
    fill="#2D2E87" />
  <path
    d="M234.602 282.647L236.113 303.393L238.088 303.295L239.111 310.999L232.676 311.901L232.189 308.415L220.318 309.048L220.172 312.413L213.42 312.339L213.273 304.929C214.029 304.904 214.663 304.831 215.175 304.734C216.857 296.981 217.368 290.058 216.735 283.964L234.578 282.599L234.602 282.647ZM221.902 304.344L229.751 303.783L228.435 287.815L222.731 288.132C223.072 292.667 222.78 298.078 221.878 304.344H221.902Z"
    fill="#2D2E87" />
  <path
    d="M254.419 280.307L258.125 284.988C256.638 285.475 255.419 286.45 254.468 287.889L252.104 291.448L259.246 296.64L261.391 298.225L255.955 304.929L253.493 302.637L248.911 298.225L249.715 306.562L241.769 305.075L240.233 283.525C240.55 283.476 242.451 282.818 245.961 281.55L247.326 287.791L249.447 284.305C250.349 282.404 252.006 281.063 254.371 280.307H254.419Z"
    fill="#2D2E87" />
  <path
    d="M279.379 280.526C279.842 281.209 280.135 282.086 280.232 283.159C280.5 286.182 278.892 288.766 275.406 290.911C273.895 291.691 272.53 292.227 271.36 292.471L273.651 301.247L267.484 303.587L259.27 280.404C262.073 279.234 264.437 278.356 266.412 277.771C266.558 277.747 266.68 277.698 266.826 277.649C268.313 277.211 269.556 276.967 270.555 276.869C274.26 276.552 277.21 277.771 279.404 280.55L279.379 280.526ZM268.605 283.671L269.629 287.132C272.359 286.182 273.651 285.207 273.529 284.207C273.407 283.183 272.847 282.622 271.823 282.525C270.702 282.598 269.629 282.988 268.605 283.695V283.671Z"
    fill="#2D2E87" />
  <path
    d="M297.052 268.922L297.563 274.456L287.984 278.502L289.715 282.232L296.564 279.843L297.49 284.645L291.762 286.986L293.395 290.862L302.975 287.108L303.633 292.788C303.657 293.007 298.685 294.811 288.715 298.175L279.258 276.064L297.076 268.873L297.052 268.922Z"
    fill="#2D2E87" />
  <path d="M298.662 268.776L318.406 260.39L328.57 282.159L322.403 285.889L315.334 269.507L307.144 272.505L313.457 289.74L306.608 290.691L298.662 268.8V268.776Z" fill="#2D2E87" />
  <path
    d="M320.842 259.22L327.058 256.71L332.03 265.266L334.249 253.565L339.611 250.859C343.731 259.927 346.997 267.436 349.386 273.311L343.853 276.09L338.734 266.631L336.711 279.698L332.177 281.965C328.789 275.968 325.035 268.362 320.867 259.196L320.842 259.22Z"
    fill="#2D2E87" />
  <path
    d="M355.552 240.133C357.453 242.278 359.087 244.228 360.5 245.959C358.526 247.007 356.771 248.007 355.187 248.958C358.916 254.833 361.987 260.025 364.425 264.486L358.794 267.826C356.917 265.412 354.187 261.073 350.58 254.857L349.19 252.59C347.411 253.662 345.583 254.833 343.73 256.149C342.414 253.297 341.439 250.957 340.829 249.079C344.925 246.544 349.848 243.57 355.552 240.157V240.133Z"
    fill="#2D2E87" />
  <path
    d="M363.646 235.135C366.936 239.84 369.081 242.765 370.081 243.838C371.982 242.034 373.81 240.717 375.589 239.815C379.343 238.816 382.146 239.425 383.95 241.644C385.12 243.131 385.754 244.764 385.827 246.519C385.413 250.151 381.245 254.32 373.371 259.074L358.356 240.205C359.745 238.036 361.5 236.354 363.67 235.11L363.646 235.135ZM375.346 250.395C377.71 248.445 378.636 247.007 378.1 246.105C377.881 245.544 377.442 245.398 376.808 245.642C375.589 246.129 374.541 246.958 373.664 248.152L375.37 250.371L375.346 250.395Z"
    fill="#2D2E87" />
  <path
    d="M383.804 220.118C386.608 217.217 389.923 216.51 393.725 217.948L392.263 224.604C390.751 224.457 389.606 224.799 388.826 225.603C386.876 227.87 386.9 230.308 388.948 232.941C391.02 234.72 392.823 234.867 394.31 233.38C394.968 232.697 395.358 231.429 395.505 229.577L401.891 227.895C403.646 232.599 402.671 236.817 398.966 240.547C396.236 243.179 392.628 243.472 388.168 241.449C386.705 240.717 385.511 239.815 384.56 238.791C380.075 234.477 379.222 229.113 381.976 222.678C382.244 221.946 382.854 221.093 383.804 220.118Z"
    fill="#2D2E87" />
  <path
    d="M397.626 209.197L398.698 207.71C401.306 205.102 403.525 203.054 405.353 201.567L423.902 219.338L418.808 224.019L412.324 217.997L414.64 228.163L408.497 230.04L406.376 220.996C403.256 222.629 400.575 222.556 398.333 220.777C397.479 220.167 396.846 219.46 396.407 218.656C395.213 215.194 395.603 212.025 397.601 209.197H397.626ZM404.353 210.099C402.939 211.464 402.013 212.634 401.526 213.536C401.184 214.39 401.355 215.072 402.038 215.608C403.086 216.462 404.816 215.608 407.181 213L404.353 210.099Z"
    fill="#2D2E87" />
  <g class="animate-svg">
    <style>
      .animate-svg {
        animation: rotate linear infinite alternate 0.5s;
        transform-origin: calc((175.65 + 96.85 / 2) / 551.42 * 100%) calc((104.16 + 99.06 / 2) / 355.43 * 100%);
      }

      .eye-translate {
        animation: translate linear infinite alternate 0.5s;
      }

      @keyframes rotate {
        0% {
          rotate: -15deg;
        }

        100% {
          rotate: 15deg;
        }
      }

      @keyframes translate {
        0% {
          translate: calc(-5.82 / 551.42 * 100%) 0;
        }

        100% {
          translate: 0 0;
        }
      }
    </style>
    <g style="mix-blend-mode:multiply">
      <path d="M180.012 168.156C180.012 168.156 178.602 198.484 218.167 205.867C251.993 212.158 272.839 186.411 272.098 159.913C271.663 144.709 180.012 168.156 180.012 168.156Z" fill="#D1970B" />
    </g>
    <path
      d="M272.044 160.783L270.07 147.132C270.07 147.132 268.826 141.159 267.925 138.453C264.975 129.726 257.809 114.88 243.403 109.444C224.512 102.326 196.943 100.278 179.759 137.478C179.759 137.478 181.246 123.022 193.287 113.808C205.329 104.617 219.101 102.569 233.287 103.813C246.864 105.007 279.6 122.194 272.044 160.783Z"
      fill="#2D2E87" />
    <path
      d="M201.723 128.262C201.723 128.262 201.518 126.509 198.695 124.172C195.867 121.858 191.662 118.706 184.907 124.073C180.475 127.582 179.952 135.377 177.913 142.158C176.847 145.725 174.512 152.498 176.748 155.814C180.906 162.012 184.831 160.341 184.831 160.341C184.831 160.341 204.739 134.461 201.752 128.243L201.723 128.262Z"
      fill="#682B17" />
    <path
      d="M195.872 137.282C195.872 137.282 192.611 137.194 190.051 134.014C187.65 131.039 184.579 131.509 182.505 135.402C180.479 139.181 180.874 155.027 187.27 151.379C193.69 147.735 195.872 137.282 195.872 137.282Z"
      fill="#010101" />
    <path
      d="M201.723 128.262C201.723 128.262 201.518 126.508 198.695 124.171C195.867 121.858 191.957 120.129 185.178 125.491C179.836 129.717 177.303 137.892 176.929 145.816C176.835 147.958 175.692 151.411 176.292 153.813C177.641 159.265 184.827 160.365 184.827 160.365C184.827 160.365 204.734 134.485 201.747 128.267L201.723 128.262Z"
      stroke="#1C0300" stroke-width="0.42" stroke-miterlimit="10" />
    <path
      d="M234.829 122.755C234.829 122.755 208.767 121.163 194.675 135.012C180.56 148.856 181.841 169.594 183.857 180.168C185.873 190.742 195.648 201.509 214.957 202.458C234.242 203.403 257.298 193.384 265.483 180.919C273.673 168.431 269.293 145.75 263.577 137.858C257.866 129.943 246.494 123.037 234.824 122.779L234.829 122.755Z"
      fill="#C24E17" />
    <path
      d="M234.832 122.856C218.663 122.493 200.209 126.851 190.766 141.057C184.653 150.274 182.734 161.672 183.413 172.607C183.825 207.133 225.288 206.53 248.163 193.868C265.513 185.222 271.341 172.622 268.224 153.663C266.602 136.212 252.161 123.768 234.832 122.856ZM234.845 122.66C246.101 123.011 257.078 128.623 264.128 137.444C271.586 149.276 273.321 165.631 267.96 178.645C261.148 191.451 246.535 197.897 233.11 201.296C210.705 206.947 183.113 199.817 182.305 172.69C181.179 161.494 182.813 149.519 189.322 140.056C199.275 125.527 218.413 122.245 234.845 122.66Z"
      fill="#1C0300" />
    <path d="M256.645 137.876C256.645 137.876 249.699 128.777 240.327 127.426L244.82 121.048L257.018 121.533L262.918 128.095L256.645 137.876Z" fill="#010101" />
    <path
      d="M235.518 114.992C235.518 114.992 231.862 124.215 238.995 126.993C244.556 129.167 245.46 121.967 248.08 121.906C250.699 121.844 256.342 122.196 255.845 128.581C255.388 134.378 260 144.116 265.424 140.999C270.847 137.882 268.372 127.243 262.951 122.687C257.53 118.131 254.265 117.297 250.86 112.463C247.454 107.628 240.27 104.989 235.494 114.988L235.518 114.992Z"
      fill="#682B17" />
    <path
      d="M235.518 114.994C235.518 114.994 230.617 123.726 237.722 126.647C244.803 129.564 244.267 123.251 248.011 122.39C253.602 121.093 257.042 125.364 255.46 130.817C253.484 137.66 260.788 145.811 266.116 142.55C272.568 138.615 266.352 128.441 262.085 122.545C259.735 119.306 257.011 114.927 251.212 111.167C246.141 107.871 240.861 105.652 235.49 115.013L235.518 114.994Z"
      fill="#682B17" stroke="#1D1D1B" stroke-width="0.42" stroke-miterlimit="10" />
    <path
      d="M240.656 177.308C240.061 178.707 238.155 182.509 234.73 183.01C234.477 183.035 234.431 183.399 234.685 183.498C236.146 184.03 238.855 184.656 240.697 183.227C242.83 181.58 241.662 178.522 241.101 177.32C241.014 177.129 240.741 177.126 240.652 177.332L240.656 177.308Z"
      fill="#311D13" />
    <path
      d="M212.442 165.463C212.442 165.463 214.319 162.327 221.086 162.004C227.5 161.711 234.243 168.536 242.272 166.323C250.301 164.109 248.498 150.274 245.714 145.56C242.931 140.847 233.042 132.069 215.965 135.478C198.888 138.887 192.16 150.368 192.092 159.27C192.025 168.173 196.105 175.92 202.358 175.944C208.635 175.973 212.418 165.459 212.418 165.459L212.442 165.463Z"
      fill="#5E2E24" />
    <path
      d="M203.203 148.865C203.781 149.598 203.198 150.677 202.271 150.596C202.055 150.554 201.811 150.532 201.553 150.457C199.599 149.903 198.044 151.388 197.756 152.996C197.464 154.628 196.073 150.161 198.732 148.617C201.225 147.164 202.568 148.046 203.208 148.841L203.203 148.865Z"
      fill="#010101" />
    <path
      d="M225.371 143.417C225.242 144.335 226.378 144.879 227.03 144.211C227.648 143.586 228.662 142.84 230.104 142.574C231.752 142.274 232.94 142.678 233.573 143C233.755 143.085 233.94 142.898 233.848 142.731C233.428 141.83 232.272 140.239 229.243 140.618C226.745 140.952 225.542 142.283 225.371 143.417Z"
      fill="#010101" />
    <path
      d="M238.303 154.301C238.747 158.659 236.692 162.456 233.706 162.744C230.72 163.033 227.954 159.763 227.515 155.381C227.071 151.024 229.126 147.226 232.112 146.938C235.098 146.649 237.864 149.919 238.303 154.301Z"
      fill="#FFFBF9" />
    <path class="eye-translate"
      d="M238.639 156.413C238.598 158.54 237.326 160.23 235.796 160.181C234.261 160.156 233.085 158.412 233.127 156.284C233.168 154.157 234.44 152.467 235.97 152.516C237.505 152.541 238.681 154.285 238.639 156.413Z"
      fill="#010101" />
    <path
      d="M208.431 161.828C209.5 166.034 207.958 169.881 205.048 170.284C202.22 170.653 199.264 167.594 198.406 163.578C197.578 159.667 199.003 156.169 201.648 155.591C204.365 155.027 207.435 157.76 208.455 161.832L208.431 161.828Z"
      fill="#FFFBF9" />
    <path class="eye-translate"
      d="M208.479 163.29C208.815 165.392 207.902 167.275 206.388 167.527C204.874 167.779 203.379 166.272 203.038 164.194C202.702 162.092 203.615 160.208 205.129 159.956C206.643 159.704 208.138 161.212 208.479 163.29Z"
      fill="#010101" />
    <path
      d="M230.062 166.283C230.062 166.283 224.637 162.769 215.938 164.082C207.264 165.4 206.741 171.408 207.299 174.67C207.856 177.933 208.408 181.095 217.082 180.546C225.756 179.998 231.583 178.251 233.353 174.771C235.122 171.29 232.679 167.636 230.086 166.287L230.062 166.283Z"
      fill="#010101" />
    <path
      d="M223.975 104.129C223.878 103.691 214.713 103.983 206.888 110.029C200.794 114.734 193.969 120.584 188.265 134.406C180.807 152.519 184.048 171.485 184.048 171.485C184.048 171.485 181.757 178.091 181.465 177.067C181.172 176.043 175.03 168.316 175.03 152.714C175.03 147.741 174.713 143.134 175.883 139.111C178.272 130.872 183.39 124.802 185.755 120.828C188.485 116.221 193.019 116.635 193.067 116.586L205.401 107.03L211.081 105.226L223.975 104.129Z"
      fill="#2D2E87" />
    <path
      d="M272.044 160.784C272.044 160.784 272.532 146.767 268.29 137.284C264.049 127.777 260.831 118.538 243.379 109.445C225.487 100.108 196.919 100.279 179.735 137.479C179.735 137.479 181.222 123.023 193.263 113.809C205.304 104.618 219.076 102.57 233.263 103.814C246.84 105.008 279.576 122.195 272.02 160.784H272.044Z"
      fill="#2D2E87" />
  </g>
  <defs>
    <linearGradient id="paint0_linear_241_4760" x1="75.2565" y1="197.111" x2="135.193" y2="313.013" gradientUnits="userSpaceOnUse">
      <stop stop-color="white" />
      <stop offset="0.75" stop-color="white" stop-opacity="0" />
    </linearGradient>
    <linearGradient id="paint1_linear_241_4760" x1="193.21" y1="105.35" x2="288.714" y2="244.121" gradientUnits="userSpaceOnUse">
      <stop stop-color="white" />
      <stop offset="0.72" stop-color="white" stop-opacity="0" />
    </linearGradient>
    <linearGradient id="paint2_linear_241_4760" x1="369.029" y1="104.643" x2="380.691" y2="191.32" gradientUnits="userSpaceOnUse">
      <stop stop-color="white" />
      <stop offset="0.69" stop-color="white" stop-opacity="0" />
    </linearGradient>
    <linearGradient id="paint3_linear_241_4760" x1="454.456" y1="102.956" x2="465.143" y2="199.02" gradientUnits="userSpaceOnUse">
      <stop stop-color="white" />
      <stop offset="0.71" stop-color="white" stop-opacity="0" />
    </linearGradient>
  </defs>
</svg>
